<svg width="18" height="18" viewBox="0 0 20 20" fill="none" xmlns="http://www.w3.org/2000/svg">
<g clip-path="url(#clip0_458_1509)">
<path d="M18.7579 15.3283L11.2427 2.17166C10.5589 0.976633 9.44513 0.976633 8.76262 2.17166L1.24242 15.3283C0.558649 16.5245 1.12491 17.5008 2.49995 17.5008H17.5003C18.8754 17.5008 19.4416 16.5245 18.7579 15.3283ZM10.0001 15.7418C9.45654 15.7418 8.65654 15.4056 8.65654 14.5418C8.65654 13.678 9.13637 13.1257 10.0001 13.1257C10.8639 13.1257 11.0565 13.7553 11.0565 14.5418C11.0565 15.3283 10.5438 15.7418 10.0001 15.7418ZM10.6565 12.5007H9.05654V6.25052H10.6565V12.5007Z" fill="#D84848"/>
</g>
<defs>
<clipPath id="clip0_458_1509">
<rect width="20" height="20" fill="white"/>
</clipPath>
</defs>
</svg>
